<?xml version="1.0" encoding="utf-8"?>
<!-- Generator: Adobe Illustrator 16.0.3, SVG Export Plug-In . SVG Version: 6.00 Build 0)  -->
<!DOCTYPE svg PUBLIC "-//W3C//DTD SVG 1.1//EN" "http://www.w3.org/Graphics/SVG/1.1/DTD/svg11.dtd">
<svg version="1.1" id="Layer_1" xmlns="http://www.w3.org/2000/svg" xmlns:xlink="http://www.w3.org/1999/xlink" x="0px" y="0px"
	 width="64px" height="64px" viewBox="0 0 64 64" style="enable-background:new 0 0 64 64;" xml:space="preserve">
<g>
	<path d="M21.319,9.943c0.479-1.5,2.939-2.94,5.279-2.94c3.96,0,9.9,2.4,9.9,4.8c0,0.48-0.54,0.84-0.9,1.5
		c-0.72,1.02-1.68,7.08-2.04,8.399c2.76-0.18,6.479-0.48,8.819-0.78c1.5-0.18,1.86-0.54,2.58-1.26c0.84-0.84,1.5-1.44,2.04-1.44
		c1.86,0,7.32,4.44,7.32,5.88c0,0.66-0.601,1.26-1.62,1.62c-0.78,0.3-1.141,0.72-1.32,2.94c-0.899,11.579-2.76,27.719-11.819,27.719
		c-1.2,0-2.7-1.5-2.7-2.7c0-1.08-0.18-2.04-1.2-3.479c-0.899-1.32-4.439-4.26-7.079-5.88l0.359-0.721
		c1.801,0.54,5.76,1.74,7.08,2.101c0.9,0.24,1.68,0.72,2.4,0.72c1.079,0,1.859-0.36,2.939-2.76c1.68-3.72,3.12-13.859,3.18-18.959
		c0-0.3-0.06-0.6-0.54-0.6c-0.24,0-7.619,0.66-10.919,1.08C29.779,38.262,24.799,49.36,8,56.62l-0.6-0.6
		c10.799-8.279,16.2-20.339,17.879-29.938c-0.42,0.06-5.76,1.08-7.38,1.98c-0.66,0.42-1.38,0.54-2.04,0.54
		c-2.88,0-6.06-3.84-6.06-7.38c0-0.72,0.96-2.76,2.28-2.76c0.42,3.18,2.399,3.9,6.359,3.9l7.619-0.36
		c0.36-2.76,0.721-5.52,0.721-8.34c0-3.06-1.92-3.96-5.4-3.66L21.319,9.943z"/>
</g>
<g>
</g>
<g>
</g>
<g>
</g>
<g>
</g>
<g>
</g>
<g>
</g>
<g>
</g>
<g>
</g>
<g>
</g>
<g>
</g>
<g>
</g>
</svg>
