<?xml version="1.0" encoding="utf-8"?>
<!-- Generator: Adobe Illustrator 16.0.3, SVG Export Plug-In . SVG Version: 6.00 Build 0)  -->
<!DOCTYPE svg PUBLIC "-//W3C//DTD SVG 1.1 Tiny//EN" "http://www.w3.org/Graphics/SVG/1.1/DTD/svg11-tiny.dtd">
<svg version="1.1" baseProfile="tiny" id="Layer_1" xmlns="http://www.w3.org/2000/svg" xmlns:xlink="http://www.w3.org/1999/xlink"
	 x="0px" y="0px" width="64px" height="64px" viewBox="0 0 64 64" xml:space="preserve">
<g>
	<path d="M52.376,12.565l1.025,1.465c-4.18,3.145-8.828,7.988-13.945,14.531c-5.117,6.543-9.023,12.657-11.719,18.34l-2.168,1.465
		c-1.797,1.25-3.018,2.178-3.663,2.783c-0.254-0.918-0.811-2.422-1.67-4.512l-0.82-1.904c-1.172-2.734-2.261-4.756-3.267-6.064
		c-1.006-1.309-2.134-2.178-3.384-2.607c2.109-2.227,4.043-3.34,5.801-3.34c1.504,0,3.174,2.042,5.01,6.124l0.908,2.051
		c3.301-5.566,7.539-10.977,12.715-16.231C42.376,19.411,47.435,15.377,52.376,12.565z"/>
</g>
<g>
</g>
<g>
</g>
<g>
</g>
<g>
</g>
<g>
</g>
<g>
</g>
<g>
</g>
<g>
</g>
<g>
</g>
<g>
</g>
<g>
</g>
</svg>
